<?xml version="1.0" standalone="no"?>
<svg xmlns="http://www.w3.org/2000/svg" viewBox="0 0 135.29 36" width="135.29" height="36"><g fill="#707793" color="#707793" transform="translate(0 6) scale(0.4705883)"><svg width="44.0" height="51.0" x="0.0" y="0.0" viewBox="0 0 44 51"><path fill="currentColor" fill-rule="evenodd" d="M22 0L0 12.571v25.143l22 12.572 21.994-12.568.006-.01V12.571L22 0zM6.354 13.778L22 4.84l15.645 8.938-4.231 2.419L22 9.678l-11.411 6.52-4.235-2.42zm17.764 10.158v-8.21L31.3 19.83v8.208l-7.182-4.101zm-11.416-4.107l7.18-4.102v8.207l-7.18 4.103v-8.208zm11.416 19.57l11.415-6.522V19.826l4.233-2.42v17.89l-15.648 8.941v-4.838zM4.233 35.296v-17.89l4.233 2.42v13.049l11.416 6.524v4.838l-15.649-8.94zm10.583-3.63l7.182-4.104 7.183 4.104L22 35.768l-7.184-4.102z"></path></svg></g><path fill="#707793" fill-rule="nonzero" d="M2.21 19.44L0 19.44L0.36 0L3.02 0L6.46 15.77L9.91 0L12.55 0L12.91 19.44L10.73 19.44L10.51 5.33L7.22 19.44L5.69 19.44L2.42 5.33L2.21 19.44ZM19.49 19.63L19.49 19.63Q17.95 19.63 17.06 19.01Q16.18 18.38 15.80 17.23Q15.43 16.08 15.43 14.52L15.43 14.52L15.43 10.49Q15.43 8.93 15.80 7.78Q16.18 6.62 17.06 6.00Q17.95 5.38 19.49 5.38L19.49 5.38Q21.02 5.38 21.90 6.00Q22.78 6.62 23.15 7.78Q23.52 8.93 23.52 10.49L23.52 10.49L23.52 14.52Q23.52 16.08 23.15 17.23Q22.78 18.38 21.90 19.01Q21.02 19.63 19.49 19.63ZM19.49 17.74L19.49 17.74Q20.23 17.74 20.53 17.30Q20.83 16.87 20.89 16.16Q20.95 15.46 20.95 14.69L20.95 14.69L20.95 10.34Q20.95 9.55 20.89 8.86Q20.83 8.16 20.53 7.72Q20.23 7.27 19.49 7.27L19.49 7.27Q18.74 7.27 18.43 7.72Q18.12 8.16 18.06 8.86Q18 9.55 18 10.34L18 10.34L18 14.69Q18 15.46 18.06 16.16Q18.12 16.87 18.43 17.30Q18.74 17.74 19.49 17.74ZM30.82 19.44L27.67 19.44L24.94 5.57L27.53 5.57L29.23 16.73L30.96 5.57L33.46 5.57L30.82 19.44ZM37.85 19.44L35.28 19.44L35.28 5.57L37.85 5.57L37.85 19.44ZM37.85 3.50L35.28 3.50L35.28 0.82L37.85 0.82L37.85 3.50ZM44.45 19.63L44.45 19.63Q42.82 19.63 41.93 19.00Q41.04 18.36 40.69 17.12Q40.34 15.89 40.34 14.09L40.34 14.09L40.34 10.92Q40.34 9.07 40.70 7.85Q41.06 6.62 41.96 6.00Q42.86 5.38 44.45 5.38L44.45 5.38Q46.20 5.38 47.03 6.10Q47.86 6.82 48.12 8.17Q48.38 9.53 48.38 11.42L48.38 11.42L48.38 12.55L42.91 12.55L42.91 15.34Q42.91 16.18 43.07 16.70Q43.22 17.23 43.57 17.48Q43.92 17.74 44.47 17.74L44.47 17.74Q45.05 17.74 45.35 17.46Q45.65 17.18 45.76 16.67Q45.86 16.15 45.86 15.46L45.86 15.46L45.86 14.62L48.36 14.62L48.36 15.14Q48.36 17.23 47.47 18.43Q46.58 19.63 44.45 19.63ZM42.91 10.42L42.91 11.16L45.86 11.16L45.86 9.91Q45.86 9.05 45.77 8.46Q45.67 7.87 45.37 7.57Q45.07 7.27 44.42 7.27L44.42 7.27Q43.80 7.27 43.48 7.56Q43.15 7.85 43.03 8.53Q42.91 9.22 42.91 10.42L42.91 10.42ZM53.93 19.63L53.93 19.63Q52.22 19.63 51.19 18.56Q50.16 17.50 50.02 15.74L50.02 15.74L52.15 15.10Q52.34 16.42 52.80 17.08Q53.26 17.74 54.14 17.74L54.14 17.74Q54.84 17.74 55.20 17.34Q55.56 16.94 55.56 16.27L55.56 16.27Q55.56 15.67 55.30 15.19Q55.03 14.71 54.43 14.21L54.43 14.21L52.06 12.17Q51.34 11.54 50.84 10.78Q50.35 10.01 50.35 8.78L50.35 8.78Q50.35 7.68 50.80 6.92Q51.24 6.17 52.04 5.77Q52.85 5.38 53.93 5.38L53.93 5.38Q55.58 5.38 56.46 6.44Q57.34 7.51 57.46 9.02L57.46 9.02L55.73 9.67Q55.63 8.95 55.44 8.41Q55.25 7.87 54.91 7.57Q54.58 7.27 54.02 7.27L54.02 7.27Q53.40 7.27 53.03 7.69Q52.66 8.11 52.66 8.69L52.66 8.69Q52.66 9.05 52.81 9.40Q52.97 9.74 53.35 10.08L53.35 10.08L55.80 12.34Q56.30 12.79 56.75 13.32Q57.19 13.85 57.48 14.52Q57.77 15.19 57.77 16.08L57.77 16.08Q57.77 17.26 57.29 18.05Q56.81 18.84 55.94 19.24Q55.08 19.63 53.93 19.63ZM67.73 24L65.16 24L65.16 18.55Q64.70 19.03 64.16 19.33Q63.62 19.63 62.93 19.63L62.93 19.63Q61.18 19.63 60.31 18.35Q59.45 17.06 59.45 13.99L59.45 13.99L59.45 11.30Q59.45 9.72 59.71 8.36Q59.98 7.01 60.71 6.19Q61.44 5.38 62.86 5.38L62.86 5.38Q63.55 5.38 64.13 5.69Q64.70 6.00 65.16 6.46L65.16 6.46L65.16 5.57L67.73 5.57L67.73 24ZM63.58 17.62L63.58 17.62Q63.94 17.62 64.36 17.48Q64.78 17.35 65.16 17.09L65.16 17.09L65.16 7.99Q64.82 7.75 64.42 7.57Q64.01 7.39 63.53 7.39L63.53 7.39Q62.64 7.39 62.33 8.24Q62.02 9.10 62.02 10.30L62.02 10.30L62.02 14.21Q62.02 15.17 62.12 15.95Q62.23 16.73 62.57 17.17Q62.90 17.62 63.58 17.62ZM72.31 19.63L72.31 19.63Q71.50 19.63 71.04 19.20Q70.58 18.77 70.40 18.12Q70.22 17.47 70.22 16.80L70.22 16.80L70.22 5.57L72.79 5.57L72.79 16.03Q72.79 16.78 73.01 17.20Q73.22 17.62 73.90 17.62L73.90 17.62Q74.33 17.62 74.80 17.36Q75.26 17.11 75.70 16.75L75.70 16.75L75.70 5.57L78.26 5.57L78.26 19.44L75.70 19.44L75.70 18.07Q75.02 18.72 74.17 19.18Q73.32 19.63 72.31 19.63ZM83.38 19.63L83.38 19.63Q82.56 19.63 81.94 19.16Q81.31 18.70 80.95 17.96Q80.59 17.23 80.59 16.42L80.59 16.42Q80.59 15.12 81.02 14.23Q81.46 13.34 82.21 12.73Q82.97 12.12 83.96 11.66Q84.96 11.21 86.06 10.78L86.06 10.78L86.06 9.79Q86.06 8.95 85.97 8.40Q85.87 7.85 85.57 7.57Q85.27 7.30 84.67 7.30L84.67 7.30Q84.14 7.30 83.82 7.54Q83.50 7.78 83.35 8.22Q83.21 8.66 83.21 9.26L83.21 9.26L83.21 9.96L80.66 9.86Q80.71 7.56 81.72 6.47Q82.73 5.38 84.84 5.38L84.84 5.38Q86.90 5.38 87.77 6.50Q88.63 7.63 88.63 9.77L88.63 9.77L88.63 16.10Q88.63 16.75 88.67 17.35Q88.70 17.95 88.76 18.47Q88.82 18.98 88.87 19.44L88.87 19.44L86.52 19.44Q86.45 19.06 86.34 18.47Q86.23 17.88 86.18 17.40L86.18 17.40Q85.94 18.22 85.26 18.92Q84.58 19.63 83.38 19.63ZM84.38 17.42L84.38 17.42Q84.77 17.42 85.10 17.21Q85.44 16.99 85.70 16.72Q85.97 16.44 86.06 16.27L86.06 16.27L86.06 12.34Q85.46 12.67 84.94 13.01Q84.41 13.34 84.01 13.72Q83.62 14.09 83.39 14.56Q83.16 15.02 83.16 15.62L83.16 15.62Q83.16 16.46 83.47 16.94Q83.78 17.42 84.38 17.42ZM93.74 19.44L91.18 19.44L91.18 5.57L93.74 5.57L93.74 7.54Q94.51 6.26 95.28 5.83Q96.05 5.40 96.82 5.40L96.82 5.40Q96.91 5.40 97.00 5.40Q97.08 5.40 97.22 5.42L97.22 5.42L97.22 8.26Q96.94 8.14 96.56 8.05Q96.19 7.97 95.81 7.97L95.81 7.97Q95.21 7.97 94.72 8.24Q94.22 8.52 93.74 9.31L93.74 9.31L93.74 19.44ZM102.65 19.63L102.65 19.63Q101.02 19.63 100.13 19.00Q99.24 18.36 98.89 17.12Q98.54 15.89 98.54 14.09L98.54 14.09L98.54 10.92Q98.54 9.07 98.90 7.85Q99.26 6.62 100.16 6.00Q101.06 5.38 102.65 5.38L102.65 5.38Q104.40 5.38 105.23 6.10Q106.06 6.82 106.32 8.17Q106.58 9.53 106.58 11.42L106.58 11.42L106.58 12.55L101.11 12.55L101.11 15.34Q101.11 16.18 101.27 16.70Q101.42 17.23 101.77 17.48Q102.12 17.74 102.67 17.74L102.67 17.74Q103.25 17.74 103.55 17.46Q103.85 17.18 103.96 16.67Q104.06 16.15 104.06 15.46L104.06 15.46L104.06 14.62L106.56 14.62L106.56 15.14Q106.56 17.23 105.67 18.43Q104.78 19.63 102.65 19.63ZM101.11 10.42L101.11 11.16L104.06 11.16L104.06 9.91Q104.06 9.05 103.97 8.46Q103.87 7.87 103.57 7.57Q103.27 7.27 102.62 7.27L102.62 7.27Q102 7.27 101.68 7.56Q101.35 7.85 101.23 8.53Q101.11 9.22 101.11 10.42L101.11 10.42Z" transform="translate(28.706, 8.28)"></path></svg>